#!OML:ASF I:\Actors\actors\Patient Classification 2\Patient 1\Session 1\actor1.ASF
:FULLY-SPECIFIED
:DEGREES
309
root -0.843912 18.7005 4.25853 6.62435 -1.51186 -1.01008
lowerback 10.9475 1.34502 -2.46283
upperback 0.237111 1.4882 0.198953
thorax -5.96652 0.802878 1.35966
lowerneck -1.59657 -2.68764 0.767016
upperneck -8.05143 -3.39781 3.14371
head -2.209 -1.79313 0.910188
rclavicle -8.44835e-016 -5.1684e-015
rhumerus 26.2047 7.91341 -31.6534
rradius 134.76
rwrist -37.5773
rhand -7.18989 -47.1241
rfingers 7.12502
rthumb 18.6882 -76.2464
lclavicle -8.44835e-016 -5.1684e-015
lhumerus -50.3328 -8.13641 83.5549
lradius 59.1852
lwrist 4.71622
lhand -7.2714 -29.9078
lfingers 7.12502
lthumb 18.6098 -0.778013
rfemur -6.00667 0.578131 15.4859
rtibia 10.389
rfoot -16.9726 -9.86472
rtoes -9.90176
lfemur -14.349 -2.14218 -12.4495
ltibia 25.9602
lfoot -19.7726 8.43117
ltoes -56.6004
310
root -0.845675 18.6996 4.28119 6.5501 -1.54232 -1.00522
lowerback 10.7894 1.37454 -2.48499
upperback 0.145614 1.52753 0.186066
thorax -5.9762 0.823749 1.35425
lowerneck -1.71672 -2.70224 0.716969
upperneck -8.07655 -3.41361 3.22367
head -2.19364 -1.8007 0.942186
rclavicle 1.80397e-014 -8.15017e-015
rhumerus 26.2839 7.70444 -31.5365
rradius 134.781
rwrist -37.5015
rhand -7.19851 -47.015
rfingers 7.12502
rthumb 18.6799 -76.1381
lclavicle 1.80397e-014 -8.15017e-015
lhumerus -50.4267 -8.06948 83.5227
lradius 59.0932
lwrist 4.59548
lhand -7.31051 -29.893
lfingers 7.12502
lthumb 18.5722 -0.759567
rfemur -5.76513 0.55495 15.4826
rtibia 10.208
rfoot -16.9095 -9.85601
rtoes -9.88617
lfemur -14.1493 -2.16186 -12.4688
ltibia 25.9011
lfoot -19.8509 8.47662
ltoes -56.6183
311
root -0.84725 18.6999 4.30603 6.49302 -1.5245 -1.00995
lowerback 10.5644 1.36884 -2.49209
upperback 0.0695643 1.52488 0.186015
thorax -5.92988 0.823153 1.36215
lowerneck -1.72699 -2.7085 0.698228
upperneck -8.23374 -3.41756 3.22986
head -2.24307 -1.80396 0.94992
rclavicle -2.49475e-014 -2.5842e-015
rhumerus 26.3801 7.48815 -31.4765
rradius 134.762
rwrist -37.5661
rhand -7.14739 -46.8385
rfingers 7.12502
rthumb 18.7291 -75.9569
lclavicle -2.49475e-014 -2.5842e-015
lhumerus -50.4815 -7.8932 83.4655
lradius 58.9647
lwrist 4.4677
lhand -7.22066 -29.9447
lfingers 7.12502
lthumb 18.6586 -0.819602
rfemur -5.51215 0.572185 15.4943
rtibia 10.0127
rfoot -16.9063 -9.90381
rtoes -9.8888
lfemur -13.9713 -2.22732 -12.4737
ltibia 25.8474
lfoot -19.9259 8.53334
ltoes -56.7249
312
root -0.848013 18.7002 4.33028 6.46731 -1.46797 -1.04313
lowerback 10.3299 1.32153 -2.48098
upperback 0.026952 1.47121 0.210945
thorax -5.84072 0.796608 1.39445
lowerneck -1.91934 -2.6759 0.747158
upperneck -8.37946 -3.37791 3.15366
head -2.25939 -1.78404 0.915812
rclavicle 1.73937e-014 0
rhumerus 26.5584 7.29756 -31.4485
rradius 134.759
rwrist -37.4729
rhand -7.19393 -46.7723
rfingers 7.12502
rthumb 18.6843 -75.895
lclavicle 1.73937e-014 0
lhumerus -50.4673 -7.65767 83.3967
lradius 58.8463
lwrist 4.46186
lhand -7.09175 -29.9747
lfingers 7.12502
lthumb 18.7826 -0.861478
rfemur -5.28628 0.523279 15.5473
rtibia 9.82127
rfoot -16.8946 -9.92282
rtoes -9.89304
lfemur -13.8433 -2.34134 -12.4373
ltibia 25.8128
lfoot -19.9851 8.56124
ltoes -56.7618
313
root -0.84942 18.7003 4.35252 6.42134 -1.48007 -1.06091
lowerback 10.1907 1.316 -2.49682
upperback 0.00180596 1.46652 0.224156
thorax -5.7894 0.794802 1.42029
lowerneck -2.35557 -2.67952 0.82498
upperneck -8.38561 -3.39529 3.06927
head -2.18644 -1.78986 0.867915
rclavicle -8.32411e-015 6.95746e-015
rhumerus 26.6639 7.08008 -31.4104
rradius 134.825
rwrist -37.2698
rhand -7.1901 -46.8226
rfingers 7.12502
rthumb 18.688 -75.9449
lclavicle -8.32411e-015 6.95746e-015
lhumerus -50.3982 -7.48687 83.3405
lradius 58.7356
lwrist 4.44064
lhand -7.10418 -29.9375
lfingers 7.12502
lthumb 18.7706 -0.823128
rfemur -5.06429 0.541277 15.5685
rtibia 9.63435
rfoot -16.905 -9.92127
rtoes -9.61431
lfemur -13.7145 -2.45091 -12.4206
ltibia 25.8423
lfoot -20.0932 8.57128
ltoes -56.5815
314
root -0.841763 18.7012 4.37061 6.4401 -1.53962 -1.03186
lowerback 10.0585 1.33557 -2.4057
upperback -0.091567 1.50313 0.172758
thorax -5.81102 0.810627 1.31103
lowerneck -2.6492 -2.7147 0.877434
upperneck -8.41552 -3.4503 3.01382
head -2.14557 -1.81574 0.837061
rclavicle -9.16894e-015 5.36719e-015
rhumerus 26.6691 6.87365 -31.4272
rradius 134.886
rwrist -37.1659
rhand -7.12061 -46.873
rfingers 7.12502
rthumb 18.7548 -75.9888
lclavicle -9.16894e-015 5.36719e-015
lhumerus -50.3975 -7.38855 83.3008
lradius 58.6531
lwrist 4.40816
lhand -7.12757 -29.8138
lfingers 7.12502
lthumb 18.7481 -0.697309
rfemur -4.92901 0.5899 15.474
rtibia 9.38384
rfoot -16.8378 -9.93943
rtoes -9.29031
lfemur -13.688 -2.60205 -12.4965
ltibia 25.8894
lfoot -20.2058 8.71794
ltoes -56.3651
315
root -0.815294 18.7014 4.38089 6.59491 -1.63891 -1.06361
lowerback 9.90554 1.33159 -1.99874
upperback -0.291743 1.54276 0.087473
thorax -5.92351 0.819537 0.987337
lowerneck -2.70808 -2.7204 0.790143
upperneck -8.50648 -3.45239 3.06919
head -2.16263 -1.81589 0.869589
rclavicle -1.5381e-014 6.55989e-015
rhumerus 26.7829 6.71021 -31.4128
rradius 134.844
rwrist -37.1802
rhand -7.30311 -46.7179
rfingers 7.12502
rthumb 18.5793 -75.8506
lclavicle -1.5381e-014 6.55989e-015
lhumerus -50.4871 -7.26376 83.2828
lradius 58.5454
lwrist 4.38396
lhand -7.04032 -29.8029
lfingers 7.12502
lthumb 18.832 -0.694547
rfemur -4.99616 0.665572 15.3488
rtibia 9.08095
rfoot -16.6136 -10.0692
rtoes -9.52129
lfemur -13.8723 -2.86551 -12.576
ltibia 25.9569
lfoot -20.3132 9.11568
ltoes -56.3444
316
root -0.817109 18.7032 4.40547 6.56039 -1.57971 -1.12055
lowerback 9.79287 1.31497 -1.94889
upperback -0.438404 1.53005 0.120662
thorax -6.01362 0.814188 0.996335
lowerneck -2.65136 -2.71871 0.673616
upperneck -8.64956 -3.44209 3.11012
head -2.21717 -1.81004 0.905557
rclavicle 1.39646e-014 -1.2921e-014
rhumerus 26.9635 6.51095 -31.3051
rradius 134.74
rwrist -37.2358
rhand -7.51924 -46.5254
rfingers 7.12502
rthumb 18.3714 -75.6779
lclavicle 1.39646e-014 -1.2921e-014
lhumerus -50.6393 -7.12567 83.2759
lradius 58.3854
lwrist 4.24951
lhand -6.93914 -29.9552
lfingers 7.12502
lthumb 18.9294 -0.856238
rfemur -4.69644 0.618089 15.4303
rtibia 8.74559
rfoot -16.5263 -10.13
rtoes -9.51449
lfemur -13.7928 -2.92486 -12.5184
ltibia 26.0071
lfoot -20.3758 9.17555
ltoes -56.5175
317
root -0.818548 18.704 4.42744 6.54823 -1.52629 -1.14068
lowerback 9.62643 1.30108 -1.95091
upperback -0.549272 1.51552 0.13971
thorax -6.0365 0.808606 1.02155
lowerneck -2.70274 -2.73003 0.651414
upperneck -8.7831 -3.45556 3.09231
head -2.25181 -1.81665 0.905122
rclavicle 2.27111e-014 -5.56597e-015
rhumerus 27.116 6.20967 -31.2074
rradius 134.688
rwrist -37.1909
rhand -7.4916 -46.5457
rfingers 7.12502
rthumb 18.398 -75.6956
lclavicle 2.27111e-014 -5.56597e-015
lhumerus -50.7338 -7.01525 83.257
lradius 58.2413
lwrist 4.11007
lhand -6.89971 -29.9789
lfingers 7.12502
lthumb 18.9673 -0.883667
rfemur -4.42528 0.569071 15.4625
rtibia 8.3925
rfoot -16.4704 -10.1461
rtoes -8.95939
lfemur -13.7334 -2.98161 -12.5026
ltibia 26.0387
lfoot -20.4253 9.23402
ltoes -56.572
318
root -0.818593 18.7044 4.44971 6.51614 -1.46632 -1.15885
lowerback 9.42085 1.28818 -1.95242
upperback -0.599225 1.50294 0.147194
thorax -5.97259 0.80271 1.03564
lowerneck -2.87842 -2.76257 0.681483
upperneck -8.8629 -3.50057 3.08097
head -2.24718 -1.83928 0.89487
rclavicle -2.02015e-014 -9.93923e-016
rhumerus 27.2102 5.83244 -31.2011
rradius 134.679
rwrist -37.088
rhand -7.306 -46.5243
rfingers 7.12502
rthumb 18.5765 -75.6573
lclavicle -2.02015e-014 -9.93923e-016
lhumerus -50.6903 -6.88545 83.2082
lradius 58.0708
lwrist 3.95993
lhand -6.86905 -29.8563
lfingers 7.12502
lthumb 18.9968 -0.763966
rfemur -4.13167 0.514033 15.4849
rtibia 8.04877
rfoot -16.3934 -10.1917
rtoes -8.68989
lfemur -13.6118 -3.04221 -12.4907
ltibia 26.0063
lfoot -20.4725 9.24489
ltoes -56.5377
319
root -0.819135 18.7052 4.47185 6.50714 -1.42151 -1.19513
lowerback 9.18948 1.27807 -1.93917
upperback -0.66063 1.4971 0.169844
thorax -5.90632 0.799999 1.05663
lowerneck -2.97823 -2.78008 0.681893
upperneck -9.00795 -3.5234 3.05715
head -2.27752 -1.8509 0.888066
rclavicle 1.35919e-014 -5.96354e-016
rhumerus 27.3228 5.50116 -31.1907
rradius 134.703
rwrist -37.0549
rhand -7.20674 -46.5056
rfingers 7.12502
rthumb 18.672 -75.6294
lclavicle 1.35919e-014 -5.96354e-016
lhumerus -50.6413 -6.68347 83.1397
lradius 57.9073
lwrist 3.74477
lhand -6.76608 -29.7971
lfingers 7.12502
lthumb 19.0958 -0.714525
rfemur -3.90349 0.475064 15.5318
rtibia 7.77174
rfoot -16.2956 -10.2998
rtoes -8.98472
lfemur -13.5094 -3.09337 -12.4507
ltibia 25.961
lfoot -20.5257 9.21058
ltoes -56.492
320
root -0.821313 18.7057 4.49387 6.52617 -1.39855 -1.23518
lowerback 8.94328 1.27756 -1.93036
upperback -0.748927 1.50341 0.189136
thorax -5.86033 0.803706 1.0748
lowerneck -3.05591 -2.79624 0.63609
upperneck -9.15295 -3.54094 3.07382
head -2.31041 -1.85946 0.90224
rclavicle -1.25731e-014 -1.19271e-015
rhumerus 27.4453 5.23524 -31.1612
rradius 134.714
rwrist -36.9936
rhand -7.29039 -46.4041
rfingers 7.12502
rthumb 18.5915 -75.5356
lclavicle -1.25731e-014 -1.19271e-015
lhumerus -50.6705 -6.57196 83.0784
lradius 57.822
lwrist 3.60978
lhand -6.64943 -29.823
lfingers 7.12502
lthumb 19.208 -0.751571
rfemur -3.71831 0.459015 15.5868
rtibia 7.5093
rfoot -16.1923 -10.4175
rtoes -9.42041
lfemur -13.4276 -3.09805 -12.4035
ltibia 25.9059
lfoot -20.5218 9.14965
ltoes -56.4139
